<?xml version="1.0" encoding="utf-8"?>
<!-- Generator: Adobe Illustrator 27.6.1, SVG Export Plug-In . SVG Version: 6.00 Build 0)  -->
<svg version="1.1" id="Layer_1" xmlns="http://www.w3.org/2000/svg" xmlns:xlink="http://www.w3.org/1999/xlink" x="0px" y="0px"
	 viewBox="0 0 304.2 121.9" style="enable-background:new 0 0 304.2 121.9;" xml:space="preserve">
<style type="text/css">
	.st0{clip-path:url(#SVGID_00000047756698759245958330000004542905893991277235_);fill:#FFFFFF;}
	.st1{clip-path:url(#SVGID_00000114775273158303458460000000956373759156924058_);}
</style>
<rect y="89.3" width="159.3" height="32.5"/>
<g>
	<defs>
		<rect id="SVGID_1_" y="0" width="304.2" height="121.9"/>
	</defs>
	<clipPath id="SVGID_00000178192684732283495960000001164839083713575582_">
		<use xlink:href="#SVGID_1_"  style="overflow:visible;"/>
	</clipPath>
	<path style="clip-path:url(#SVGID_00000178192684732283495960000001164839083713575582_);fill:#FFFFFF;" d="M150.3,110.7
		c-0.4,0.3-0.8,0.7-1.4,0.9c-0.5,0.3-1.2,0.4-1.9,0.4c-1.1,0-2-0.4-2.6-1.2c-0.6-0.8-0.9-2.1-0.9-3.8c0-1.7,0.3-2.9,0.9-3.7
		c0.6-0.8,1.5-1.2,2.6-1.2c0.6,0,1.1,0.1,1.6,0.3c0.5,0.2,1,0.5,1.6,0.9V110.7z M152.6,100.4h-2.1l-0.3,1c-0.6-0.5-1.1-0.8-1.7-1.1
		c-0.6-0.2-1.2-0.4-2-0.4c-1.5,0-2.8,0.6-3.9,1.9c-1,1.3-1.5,2.9-1.5,5.1c0,2.2,0.5,4,1.4,5.1c0.9,1.2,2.2,1.8,3.9,1.8
		c0.8,0,1.5-0.2,2.2-0.5c0.7-0.3,1.2-0.7,1.6-1.1v0.7c0,1.7-0.4,2.9-1.2,3.5c-0.8,0.6-1.9,1-3.3,1c-0.8,0-1.4-0.1-2-0.3
		c-0.6-0.2-1-0.4-1.4-0.6h-0.6v2.2c0.7,0.2,1.3,0.3,1.9,0.4c0.6,0.1,1.2,0.2,1.8,0.2c2.2,0,4-0.6,5.2-1.7c1.2-1.1,1.8-3,1.8-5.5
		V100.4z M138.6,114.6V105c0-1.6-0.4-2.9-1.1-3.7c-0.7-0.8-1.8-1.3-3.2-1.3c-0.7,0-1.4,0.1-2,0.3c-0.7,0.2-1.3,0.6-2,1.2l-0.3-1.2
		h-2.1v14.2h2.3v-11.2c0.6-0.4,1.2-0.8,1.7-1c0.5-0.2,1.1-0.3,1.7-0.3c1,0,1.6,0.2,2.1,0.7s0.6,1.3,0.6,2.5v9.3H138.6z M121.6,94.2
		h-2.8v3.1h2.8V94.2z M124.7,114.6v-1.8h-2.9v-12.3h-5.2v1.8h2.9v10.5H116v1.8H124.7z M113.5,102.8v-2.4c-0.3-0.1-0.7-0.2-1.2-0.3
		c-0.4-0.1-0.9-0.1-1.5-0.1c-0.3,0-0.7,0.1-1.1,0.2c-0.4,0.2-0.7,0.4-1.1,0.6c-0.4,0.3-0.7,0.6-1.1,0.9c-0.4,0.3-0.7,0.7-1,1.1
		l-0.3-2.5h-4.2v1.8h2.2v10.5h-2.2v1.8h7.3v-1.8h-2.8v-8c0.3-0.3,0.5-0.5,0.8-0.8c0.3-0.3,0.6-0.6,1-0.8c0.3-0.3,0.7-0.5,1.1-0.6
		c0.4-0.2,0.8-0.3,1.2-0.3c0.3,0,0.6,0,0.8,0.1c0.2,0,0.4,0.1,0.6,0.1c0.2,0.1,0.3,0.1,0.4,0.2c0.1,0.1,0.2,0.1,0.4,0.2H113.5z
		 M90.1,106.1c0.1-1.2,0.4-2.2,1.1-3c0.6-0.8,1.6-1.2,2.8-1.2c1.2,0,2.1,0.4,2.6,1.2c0.5,0.8,0.8,1.8,0.8,3H90.1z M99.5,107.9v-1.5
		c0-1.9-0.5-3.4-1.4-4.6c-0.9-1.1-2.3-1.7-4.2-1.7c-1.8,0-3.4,0.7-4.5,2c-1.2,1.3-1.8,3.2-1.8,5.6c0,2.5,0.6,4.3,1.9,5.5
		c1.3,1.2,3,1.8,5,1.8c0.8,0,1.6-0.1,2.4-0.3c0.8-0.2,1.6-0.4,2.4-0.8v-2.1h-0.6c-0.4,0.3-1,0.6-1.7,0.8c-0.7,0.2-1.5,0.4-2.2,0.4
		c-1.5,0-2.6-0.4-3.5-1.3c-0.9-0.8-1.3-2.1-1.3-3.9H99.5z M76,106.1c0.1-1.2,0.4-2.2,1.1-3c0.6-0.8,1.6-1.2,2.8-1.2
		c1.2,0,2.1,0.4,2.6,1.2c0.5,0.8,0.8,1.8,0.8,3H76z M85.4,107.9v-1.5c0-1.9-0.5-3.4-1.4-4.6c-0.9-1.1-2.3-1.7-4.2-1.7
		c-1.8,0-3.4,0.7-4.5,2c-1.2,1.3-1.8,3.2-1.8,5.6c0,2.5,0.6,4.3,1.9,5.5c1.3,1.2,3,1.8,5,1.8c0.8,0,1.6-0.1,2.4-0.3
		c0.8-0.2,1.6-0.4,2.4-0.8v-2.1h-0.6c-0.4,0.3-1,0.6-1.7,0.8c-0.7,0.2-1.5,0.4-2.2,0.4c-1.5,0-2.6-0.4-3.5-1.3
		c-0.9-0.8-1.3-2.1-1.3-3.9H85.4z M70.9,114.6V105c0-1.6-0.4-2.9-1.1-3.7c-0.7-0.8-1.8-1.3-3.2-1.3c-0.7,0-1.4,0.1-2,0.3
		c-0.7,0.2-1.3,0.6-2,1.2l-0.3-1.2h-2.1v14.2h2.3v-11.2c0.6-0.4,1.2-0.8,1.7-1c0.5-0.2,1.1-0.3,1.7-0.3c1,0,1.6,0.2,2.1,0.7
		c0.4,0.5,0.6,1.3,0.6,2.5v9.3H70.9z M53.9,94.2h-2.8v3.1h2.8V94.2z M57,114.6v-1.8H54v-12.3h-5.2v1.8h2.9v10.5h-3.5v1.8H57z
		 M42.7,110.7c-0.4,0.3-0.8,0.7-1.4,0.9c-0.5,0.3-1.2,0.4-1.9,0.4c-1.1,0-2-0.4-2.6-1.2c-0.6-0.8-0.9-2.1-0.9-3.8
		c0-1.7,0.3-2.9,0.9-3.7c0.6-0.8,1.5-1.2,2.6-1.2c0.6,0,1.1,0.1,1.6,0.3c0.5,0.2,1,0.5,1.6,0.9V110.7z M45,100.4H43l-0.3,1
		c-0.6-0.5-1.1-0.8-1.7-1.1c-0.6-0.2-1.2-0.4-2-0.4c-1.5,0-2.8,0.6-3.9,1.9c-1,1.3-1.5,2.9-1.5,5.1c0,2.2,0.5,4,1.4,5.1
		c0.9,1.2,2.2,1.8,3.9,1.8c0.8,0,1.5-0.2,2.2-0.5c0.7-0.3,1.2-0.7,1.6-1.1v0.7c0,1.7-0.4,2.9-1.1,3.5c-0.8,0.6-1.9,1-3.3,1
		c-0.8,0-1.4-0.1-2-0.3c-0.6-0.2-1-0.4-1.4-0.6h-0.6v2.2c0.7,0.2,1.3,0.3,1.9,0.4c0.6,0.1,1.2,0.2,1.8,0.2c2.2,0,4-0.6,5.2-1.7
		c1.2-1.1,1.8-3,1.8-5.5V100.4z M31,114.6V105c0-1.6-0.4-2.9-1.1-3.7c-0.7-0.8-1.8-1.3-3.2-1.3c-0.7,0-1.4,0.1-2,0.3
		c-0.7,0.2-1.3,0.6-2,1.2l-0.3-1.2h-2.1v14.2h2.3v-11.2c0.6-0.4,1.2-0.8,1.7-1c0.5-0.2,1.1-0.3,1.7-0.3c1,0,1.6,0.2,2.1,0.7
		c0.4,0.5,0.6,1.3,0.6,2.5v9.3H31z M17.7,114.6v-2H9.5v-7.2h7.8v-2H9.5v-5.7h8.2v-2H7.1v18.9H17.7z"/>
</g>
<g>
	<defs>
		<rect id="SVGID_00000129188962326157870740000004044614267961839027_" width="304.2" height="63.5"/>
	</defs>
	<clipPath id="SVGID_00000121988628729398689370000002748366641502017159_">
		<use xlink:href="#SVGID_00000129188962326157870740000004044614267961839027_"  style="overflow:visible;"/>
	</clipPath>
	<path style="clip-path:url(#SVGID_00000121988628729398689370000002748366641502017159_);" d="M8,7.7h6.6c6,0,8.7,1.9,8.7,5.8
		c0,3.4-2.7,5.7-8,5.7H8V7.7z M0.1,45.8h16.1c8.5,0,16.9-3,16.9-12.8c0-5.8-4-10.2-9.7-10.9V22c4.6-1.4,7.8-4.8,7.8-9.8
		c0-8.2-6.9-11.3-13.7-11.3H0.1V45.8z M8,26h7.6c6.4,0,9.5,1.6,9.5,6.4c0,5.9-5.7,6.6-9.8,6.6H8V26z"/>
	
		<rect x="38.3" y="-0.2" style="clip-path:url(#SVGID_00000121988628729398689370000002748366641502017159_);" width="7.6" height="46.1"/>
	<path style="clip-path:url(#SVGID_00000121988628729398689370000002748366641502017159_);" d="M58.5,30.6c0-4.8,3.3-9.1,8.9-9.1
		c5.6,0,8.9,4.4,8.9,9.1c0,4.8-3.3,9.2-8.9,9.2C61.9,39.7,58.5,35.3,58.5,30.6 M50.9,30.6c0,9.6,7.3,16,16.5,16
		c9.2,0,16.5-6.4,16.5-16c0-9.6-7.3-16-16.5-16C58.3,14.6,50.9,21,50.9,30.6"/>
	<path style="clip-path:url(#SVGID_00000121988628729398689370000002748366641502017159_);" d="M94.9,30.6c0-4.8,3.3-9.1,8.9-9.1
		c5.6,0,8.9,4.4,8.9,9.1c0,4.8-3.3,9.2-8.9,9.2C98.2,39.7,94.9,35.3,94.9,30.6 M87.3,30.6c0,9.6,7.3,16,16.5,16
		c9.2,0,16.5-6.4,16.5-16c0-9.6-7.3-16-16.5-16C94.6,14.6,87.3,21,87.3,30.6"/>
	<path style="clip-path:url(#SVGID_00000121988628729398689370000002748366641502017159_);" d="M124.9,15.3h7.2v4.8h0.1
		c1.3-2.9,4.2-5.5,9.3-5.5c4.7,0,7.9,1.8,9.5,5.7c2.2-3.9,5.4-5.7,10-5.7c8.1,0,10.9,5.8,10.9,13.1v18.2h-7.6V28.5
		c0-3.8-1.1-7.1-5.6-7.1c-4.7,0-6.5,3.9-6.5,7.9v16.5h-7.6V27.6c0-3.7-1.5-6.2-5.2-6.2c-5,0-6.9,3.7-6.9,7.8v16.6h-7.6V15.3z"/>
	<path style="clip-path:url(#SVGID_00000121988628729398689370000002748366641502017159_);" d="M203.2,30.6c0,4.8-3.3,9.2-8.9,9.2
		c-5.6,0-8.9-4.4-8.9-9.2c0-4.8,3.3-9.1,8.9-9.1C199.8,21.4,203.2,25.8,203.2,30.6 M178,45.8h7.2v-4.6h0.1c2.2,3.7,6.2,5.3,10.4,5.3
		c9.3,0,15-7,15-16c0-9-6-16-14.7-16c-5.7,0-8.7,2.7-10.3,4.6h-0.2V-0.2H178V45.8z"/>
	<path style="clip-path:url(#SVGID_00000121988628729398689370000002748366641502017159_);" d="M221.8,27.5c0.6-4.4,3.3-7.2,7.8-7.2
		c4.7,0,7.6,2.8,7.7,7.2H221.8z M244.9,33.2v-2.1c0-10.6-5.7-16.6-14.2-16.6c-9.2,0-16.5,6.4-16.5,16c0,9.6,7.3,16,16.5,16
		c4.8,0,9.3-1.7,12.8-6.1l-5.4-4.1c-1.9,2.4-4.4,4.1-8.1,4.1c-4.2,0-7.6-2.7-8.1-7.2H244.9z"/>
	<path style="clip-path:url(#SVGID_00000121988628729398689370000002748366641502017159_);" d="M249.8,15.3h7.6v4.8h0.1
		c1.6-3.5,5-5.6,9-5.6c0.9,0,1.8,0.2,2.7,0.4v7.4c-1.3-0.3-2.5-0.6-3.7-0.6c-7.1,0-8.1,6-8.1,7.7v16.3h-7.6V15.3z"/>
	<path style="clip-path:url(#SVGID_00000121988628729398689370000002748366641502017159_);" d="M286.2,21.4c5.5,0,9,3.7,9,9
		c0,5.1-3.4,9-9,9c-5.1,0-8.9-4-8.9-8.8C277.2,25.1,280.9,21.4,286.2,21.4 M295.1,15.3v4.6H295c-2.2-3.7-6.2-5.3-10.4-5.3
		c-9.3,0-15,7-15,16c0,8.6,6,15.6,15.1,15.6c3.8,0,7.7-1.5,9.9-4.4h0.1V44c0,6-2.3,10.2-9.6,10.2c-4.2,0-7.4-1.6-10.4-4.4l-4.5,6.2
		c4.3,3.8,9.4,5,15,5c11.8,0,17.1-7,17.1-18V15.3H295.1z"/>
</g>
</svg>
